<svg id="Layer_1" data-name="Layer 1" xmlns="http://www.w3.org/2000/svg" viewBox="0 0 222.45 75.43"><defs><style>.cls-1{fill:#1c75bc;}</style></defs><path class="cls-1" d="M296,171h9c2.63,0,4.39-.3,5.3-.88a2.77,2.77,0,0,0,1.35-2.47V134.11h27.1v36.26q0,6.76-5.23,9.54t-16.69,2.77H296Zm19.83,5.82c4,0,6.86-.52,8.5-1.56a5.21,5.21,0,0,0,2.46-4.7V139.94h-3.32v30.65a4.13,4.13,0,0,1-1.36,3.38c-.9.76-3,1.13-6.28,1.13h-10v1.75Z" transform="translate(-296 -132.95)"/><path class="cls-1" d="M349.09,134.11h21.68l21.43,18.64,21.31-18.64h21.68v48.57H409V165.2L392.2,179.76,375.32,165.2v17.48H349.09Zm15.52,42.74V143.43l27.59,23.74,27.47-23.74v33.42h3.2V139.94h-3.2L392.2,163.89l-27.59-23.95h-3.2v36.91Z" transform="translate(-296 -132.95)"/><path class="cls-1" d="M444.06,158.43a17.33,17.33,0,0,1,3.44-10.52,29.34,29.34,0,0,1,9.37-8,50.46,50.46,0,0,1,13.79-5.13A75.73,75.73,0,0,1,487.41,133a86.29,86.29,0,0,1,12.5.8,89.31,89.31,0,0,1,9.43,1.82,56.77,56.77,0,0,1,7.88,2.55l-12.93,13.47c-1.32-.59-2.75-1.14-4.31-1.68-1.4-.39-3.06-.76-5-1.13a36.2,36.2,0,0,0-6.59-.54,28.56,28.56,0,0,0-7,.8,21.66,21.66,0,0,0-5.61,2.18,11.8,11.8,0,0,0-3.75,3.24,6.58,6.58,0,0,0-1.36,4,6.4,6.4,0,0,0,1.42,4,12.26,12.26,0,0,0,3.88,3.24,22.46,22.46,0,0,0,5.79,2.18,30.58,30.58,0,0,0,7.26.8,37.85,37.85,0,0,0,7-.58,36.55,36.55,0,0,0,5.18-1.31,21.81,21.81,0,0,0,4.31-1.89l12.93,13.47a46,46,0,0,1-7.88,2.84q-3.94,1-9.49,1.89a82.42,82.42,0,0,1-12.68.87,80.11,80.11,0,0,1-17.74-1.85,51.93,51.93,0,0,1-14-5.21,28,28,0,0,1-9.24-8A17.55,17.55,0,0,1,444.06,158.43Zm15.52,0a11.58,11.58,0,0,1,2-6.55,18,18,0,0,1,5.72-5.32,32.26,32.26,0,0,1,9-3.57,49.44,49.44,0,0,1,11.82-1.31,57.35,57.35,0,0,1,5.73.26,39.21,39.21,0,0,1,4.25.62,23.36,23.36,0,0,1,3.57.87l1.72-1.75c-1.31-.34-2.71-.65-4.18-.94s-3-.46-4.81-.66a60.59,60.59,0,0,0-6.28-.29,53.91,53.91,0,0,0-12,1.31,37.85,37.85,0,0,0-10.1,3.75,22.56,22.56,0,0,0-7,5.9,12.28,12.28,0,0,0-2.65,7.68,12.65,12.65,0,0,0,2.53,7.72,21.08,21.08,0,0,0,7,5.86,38.79,38.79,0,0,0,10.34,3.75,58.26,58.26,0,0,0,12.57,1.31,55.44,55.44,0,0,0,6.65-.36c2-.25,3.65-.51,5.05-.81a32.88,32.88,0,0,0,4.19-1.16L502.93,173a21,21,0,0,1-3.69,1.09,41.42,41.42,0,0,1-4.44.77,48.17,48.17,0,0,1-6,.33,52.27,52.27,0,0,1-12.2-1.31,33,33,0,0,1-9.17-3.57,17.72,17.72,0,0,1-5.79-5.32A11.58,11.58,0,0,1,459.58,158.43Z" transform="translate(-296 -132.95)"/><path class="cls-1" d="M309,205.92h.81a.68.68,0,0,0,.47-.13.53.53,0,0,0,.12-.37v-4.94h2.42v5.34a1.75,1.75,0,0,1-.47,1.4,2.19,2.19,0,0,1-1.49.41H309Z" transform="translate(-296 -132.95)"/><path class="cls-1" d="M315.74,200.48h1.76l2.78,7.15H318l-.24-.64h-2.22l-.25.64H313Zm1.37,4.93-.49-1.25-.5,1.25Z" transform="translate(-296 -132.95)"/><path class="cls-1" d="M320.63,200.48H325v1.87h-2v.8h1.94v1.78H323v.82h2v1.88h-4.4Z" transform="translate(-296 -132.95)"/><path class="cls-1" d="M367.89,200.68h1.94l1.91,2.75,1.91-2.75h1.93v7.16h-2.34v-2.58l-1.5,2.15-1.5-2.15v2.58h-2.35Z" transform="translate(-296 -132.95)"/><path class="cls-1" d="M378.72,200.68h1.76l2.78,7.16H381l-.24-.65h-2.22l-.24.65h-2.31Zm1.37,4.94-.49-1.26-.5,1.26Z" transform="translate(-296 -132.95)"/><path class="cls-1" d="M383.61,200.68h4.33v1.88h-2v.79h1.94v1.78H386V206H388v1.88h-4.4Z" transform="translate(-296 -132.95)"/><path class="cls-1" d="M388.55,205.62a2.71,2.71,0,0,0,.51.11,3.21,3.21,0,0,0,.5.09,5.44,5.44,0,0,0,.57,0c.33,0,.5-.12.5-.36a.43.43,0,0,0-.15-.29l-.39-.32-.51-.39a3.31,3.31,0,0,1-.5-.49,2.93,2.93,0,0,1-.4-.63,2,2,0,0,1-.15-.8,1.94,1.94,0,0,1,.19-.89,1.69,1.69,0,0,1,.51-.64,2.38,2.38,0,0,1,.78-.39,3.26,3.26,0,0,1,.95-.14,4.71,4.71,0,0,1,.53,0l.47.05.48.06v2l-.2,0-.2,0h-.4l-.18,0a.48.48,0,0,0-.16.08.2.2,0,0,0-.06.15c0,.06.05.13.15.22l.36.3.47.39a3,3,0,0,1,.47.52,2.75,2.75,0,0,1,.37.65,2.14,2.14,0,0,1,.15.82,2.55,2.55,0,0,1-.16.88,1.76,1.76,0,0,1-.48.72,2.3,2.3,0,0,1-.83.48,3.53,3.53,0,0,1-1.2.18,6.29,6.29,0,0,1-.77,0,4.76,4.76,0,0,1-.63-.09c-.22,0-.41-.08-.59-.13Z" transform="translate(-296 -132.95)"/><path class="cls-1" d="M394.36,202.56H393v-1.88h5.12v1.88h-1.35v5.28h-2.42Z" transform="translate(-296 -132.95)"/><path class="cls-1" d="M398.71,200.68h2.53a4.17,4.17,0,0,1,1.3.19,3.09,3.09,0,0,1,1,.53,2.6,2.6,0,0,1,.69.88,2.78,2.78,0,0,1,.24,1.19,2.44,2.44,0,0,1-.15.91,3.07,3.07,0,0,1-.34.63,2.47,2.47,0,0,1-.5.47l1.38,2.36h-2.75l-1.1-1.82v1.82h-2.34Zm2.34,3.52h.12a1.34,1.34,0,0,0,.71-.18.68.68,0,0,0,.29-.61.66.66,0,0,0-.29-.61,1.26,1.26,0,0,0-.71-.19h-.12Z" transform="translate(-296 -132.95)"/><path class="cls-1" d="M405.09,204.27a3.57,3.57,0,0,1,.3-1.46,3.88,3.88,0,0,1,.82-1.2,3.94,3.94,0,0,1,5.45,0,3.71,3.71,0,0,1,.82,1.2,3.57,3.57,0,0,1,0,2.91,3.71,3.71,0,0,1-.82,1.2,3.94,3.94,0,0,1-5.45,0,3.88,3.88,0,0,1-.82-1.2A3.55,3.55,0,0,1,405.09,204.27Zm2.31,0a1.43,1.43,0,0,0,.12.58,1.58,1.58,0,0,0,.33.48,1.66,1.66,0,0,0,.49.32,1.46,1.46,0,0,0,.6.12,1.53,1.53,0,0,0,.6-.12,2,2,0,0,0,.49-.32,1.75,1.75,0,0,0,.32-.48,1.38,1.38,0,0,0,0-1.17,1.75,1.75,0,0,0-.32-.48,2,2,0,0,0-.49-.32,1.53,1.53,0,0,0-.6-.12,1.46,1.46,0,0,0-.6.12,1.66,1.66,0,0,0-.49.32,1.58,1.58,0,0,0-.33.48A1.45,1.45,0,0,0,407.4,204.27Z" transform="translate(-296 -132.95)"/><path class="cls-1" d="M453.41,204.62a3.81,3.81,0,0,1,.31-1.54,3.63,3.63,0,0,1,2.07-2,4.38,4.38,0,0,1,1.5-.26,4.66,4.66,0,0,1,1.11.12,5.21,5.21,0,0,1,.84.27,4.26,4.26,0,0,1,.71.37l-1.16,2a3.57,3.57,0,0,0-.38-.25c-.13-.06-.28-.11-.45-.17a2.1,2.1,0,0,0-.59-.08,1.59,1.59,0,0,0-.62.12,1.71,1.71,0,0,0-.5.32,1.45,1.45,0,0,0-.34.48,1.43,1.43,0,0,0-.12.58,1.31,1.31,0,0,0,.13.59,1.61,1.61,0,0,0,.34.48,1.82,1.82,0,0,0,.52.32,1.71,1.71,0,0,0,.65.12,2.08,2.08,0,0,0,.63-.09,2.91,2.91,0,0,0,.46-.19,1.78,1.78,0,0,0,.38-.28l1.16,2a3.25,3.25,0,0,1-.71.42,6.33,6.33,0,0,1-.84.28,4.36,4.36,0,0,1-1.14.13,4.48,4.48,0,0,1-1.58-.27,3.87,3.87,0,0,1-1.25-.77,3.45,3.45,0,0,1-.83-1.19A3.8,3.8,0,0,1,453.41,204.62Z" transform="translate(-296 -132.95)"/><path class="cls-1" d="M460.52,201h2.53a4.17,4.17,0,0,1,1.3.19,3.09,3.09,0,0,1,1,.53,2.42,2.42,0,0,1,.69.87,2.71,2.71,0,0,1,.25,1.2,2.25,2.25,0,0,1-.16.91,2.66,2.66,0,0,1-.34.63,2.42,2.42,0,0,1-.49.47l1.37,2.36H464l-1.1-1.82v1.82h-2.34Zm2.34,3.52H463a1.31,1.31,0,0,0,.71-.18.65.65,0,0,0,.29-.61.64.64,0,0,0-.29-.61A1.23,1.23,0,0,0,463,203h-.12Z" transform="translate(-296 -132.95)"/><path class="cls-1" d="M467.12,201h4.32v1.88h-2v.79h2v1.78h-2v.83h2.06v1.88h-4.4Z" transform="translate(-296 -132.95)"/><path class="cls-1" d="M474.65,201h1.76l2.79,7.16h-2.31l-.25-.65h-2.22l-.24.65h-2.31ZM476,206l-.5-1.26L475,206Z" transform="translate(-296 -132.95)"/><path class="cls-1" d="M479.69,202.92h-1.35V201h5.12v1.88h-1.35v5.28h-2.42Z" transform="translate(-296 -132.95)"/><path class="cls-1" d="M484,201h2.48v7.16H484Z" transform="translate(-296 -132.95)"/><path class="cls-1" d="M489.44,201l1.24,3.11,1.25-3.11h2.57l-2.86,7.16h-1.91L486.88,201Z" transform="translate(-296 -132.95)"/><path class="cls-1" d="M494.85,201h4.32v1.88h-2v.79h1.95v1.78h-1.95v.83h2.06v1.88h-4.4Z" transform="translate(-296 -132.95)"/><path class="cls-1" d="M499.79,206a2.78,2.78,0,0,0,.5.11,3.44,3.44,0,0,0,.5.09l.57,0q.51,0,.51-.36a.39.39,0,0,0-.16-.29c-.1-.09-.23-.2-.39-.32l-.5-.39a3.91,3.91,0,0,1-.51-.49,2.55,2.55,0,0,1-.39-.63,2,2,0,0,1-.15-.8A2.08,2.08,0,0,1,500,202a1.81,1.81,0,0,1,.52-.64,2.4,2.4,0,0,1,.78-.4,3.57,3.57,0,0,1,.95-.13l.53,0,.47,0,.47.06v2l-.2,0-.19,0h-.4l-.19,0a.36.36,0,0,0-.15.08.18.18,0,0,0-.07.15q0,.09.15.21l.36.3.48.4a3,3,0,0,1,.47.52,3.12,3.12,0,0,1,.36.65,2.14,2.14,0,0,1,.15.82,2.54,2.54,0,0,1-.15.88,1.86,1.86,0,0,1-.48.72,2.39,2.39,0,0,1-.83.48,3.61,3.61,0,0,1-1.2.18,6.35,6.35,0,0,1-.78,0,5,5,0,0,1-.63-.09c-.21,0-.41-.08-.58-.13Z" transform="translate(-296 -132.95)"/></svg>